<?xml version="1.0" standalone="no"?><!DOCTYPE svg PUBLIC "-//W3C//DTD SVG 1.1//EN" "http://www.w3.org/Graphics/SVG/1.1/DTD/svg11.dtd"><svg t="1716818006197" class="icon" viewBox="0 0 1024 1024" version="1.1" xmlns="http://www.w3.org/2000/svg" p-id="12980" xmlns:xlink="http://www.w3.org/1999/xlink" width="256" height="256"><path d="M564.933616 287.25268555h-3.17333221c-4.6178627 0-29.14089202 1.15562439-25.3905201 6.0585308 2.88674355 9.2326355 8.36823464 15.58007241 15.86975097 20.77342987 5.19258499 1.73034668 8.65482331-6.92447663 11.24957085-11.2511158 4.04082298-6.92447663 4.32895661-8.94450188 4.32895661-12.98377991-0.00077248-2.3073864-1.15330696-2.59706497-2.88442612-2.59706496zM525.98613865 295.9090538c-9.23340798 6.92447663-13.85204316 14.71335411-19.61935043 24.23412323-3.46301079 6.05853081-11.54156685 6.92447663-15.00380515 12.98377991 0 1.73189163-0.57626724 12.40596772-0.57626725 14.13708686 0 15.29039383 0.57626724 25.67710877 3.46223832 36.35272981l1.72880172 1.73111916c0.57935715 0 6.92602158-4.6178627 7.50460625-5.19412995 6.92370415-6.92293167 10.09626389-6.34666443 21.92519188-22.50377654 0.86594582-6.05853081 5.19490242-5.19335747 6.92602157-8.07855608 3.45992088-4.03927803 10.96298218-12.40596772 10.96298219-17.31041907 0-2.5962925-3.46301079-8.36668968-4.03927803-10.38594246-3.46455574-8.65559578-7.2141552-27.69713402-13.27114107-25.96601487z" p-id="12981" fill="#555555"></path><path d="M811.67101033 739.66495705L736.61876805 130.6315918H290.53848394l-75.05146981 609.03336525c-1.99994087 16.23281479 8.63705635 34.8533535 23.63622666 41.37150765l247.18079567 107.44062423c15.00148774 6.52201653 39.54691887 6.52201653 54.5484066 0l247.18002318-107.44062423c15.00148774-6.51815415 25.63616753-25.13946533 23.63854409-41.37150765z m-357.52515793-212.37997055c0-3.74959946 15.86743355-3.46223831 17.30964661-4.32972908 5.48149109 0 12.9837799 11.25652313 12.9837799 19.9121189 0 2.59320259 0 6.05466843-2.30815887 7.78656006 0 0-11.82815552 4.04159546-16.73337936 11.25343323-7.50228882 4.32895661-13.2695961 11.25034333-19.909029 16.73028946-0.86594582 0.5809021-6.05775832 4.04314041-6.92293168 5.19644737-6.92293167 5.19335747-12.9837799 10.9622097-20.77188492 16.15556717-3.17333221 0-16.4467907 16.44524574-23.65940094 16.73646927-3.74959946 5.18872261-7.49919892 4.90213394-10.9622097 7.4999714-5.48149109 4.61554527-9.80967522 10.67407608-17.30887413 10.67407608 0-10.9622097 6.92293167-10.9622097 17.30887413-18.17404748 5.19490242-6.06084824 10.38825989-11.54156685 16.15711212-17.31428146 6.34666443-8.94372939 17.02305794-12.40365029 25.38820267-24.52302934 8.36823464-7.79119492 10.96452713-8.07778358 20.77265739-22.50300406 0-2.88288116 10.38903237-7.49997139 10.38903237-16.44524575-0.00154495-3.46069336-1.73343658-6.05775832-1.73343659-8.65559577z m28.56462478 90.01433372c-2.3104763 3.74959946-8.94450188 8.37055206-8.6579132 8.07932854-3.74959946 8.94218445-6.92602158 2.30970383-6.92602157 19.90671157-2.01770783 1.73034668-3.45992088 13.85204316-3.45992089 30.294199l-0.86517334 1.73189162c0 0.86594582 0.86517334 3.46378327 0.86517334 4.32895662v47.89352416c0.57626724 1.4375782 0.86594582 3.17024231 0.86594582 4.90058899 0 1.73189163-0.28967857 3.75037193-0.28967858 5.77425957 0 2.0184803 0.28967857 4.32432175 1.1556244 6.05466842 0 7.79119492-0.86594582 26.83273315-9.51999665 32.89203644-2.02079773 2.0184803-10.67562104 4.32972908-11.25420571 5.19490243-3.46069336-2.88906098-5.19181252-6.34743691-6.92061424-9.80813027 0-18.75494957 0.86285591-24.8157978 0.86285592-33.46675873 2.02079773-11.5400219 1.73189163-26.83273315 1.73189162-39.23947334 0-1.15253448 1.73111916-4.61554527 1.73111916-5.19644738 0-0.57317734-0.28967857-2.88288116-0.86594582-4.61554526 0 1.44530296 0-22.50300408-3.45992088-22.50300408-5.19490242 0-9.52308654 6.05930328-12.12015151 9.52308654-2.59706497 4.32895661-7.78887749 6.05466843-11.24957085 9.51690674-3.46223831 2.59783745-5.19490242 6.34589195-10.38825989 8.07778359-1.15253448 0-3.46301079 4.04314041-4.61631775 4.04314041-7.78887749 5.19490242-14.71180915 14.71180915-23.08004379 19.03999329-1.15485191 0-3.46223831 2.88288116-4.61863518 2.88288116-2.01770783 0.28658867-5.19104004 0.28658867-5.19104004-5.19335746 0-0.28658867 4.3258667-6.92061424 6.92293168-6.92061426 1.15485191-1.1587143 6.34666443-4.61554527 6.92524909-5.19644736 9.80967522-10.09471894 19.33044434-19.03999328 27.6979065-29.7163868 8.36591721-10.67562104 15.57852744-22.50300408 24.52225685-33.75643729 0.86594582-1.15407944 7.49919892-8.07932854 10.38594246-12.98146248 1.7295742-2.88442612 0.86594582-5.19490242 3.46069336-6.92679406 3.17564964-1.15253448 5.19412995-1.73034668 5.19412995-4.61554527v-2.30506897l1.73189162-2.88751602c-0.86594582-0.28658867 3.46223831-4.32432175 3.46223831-7.50151635 3.17101478-3.17024231 4.32663918-6.34743691 4.32663918-10.3813076 0-4.62249756-4.32663918-6.92679405-4.32663918-12.120924 0-2.88288116 6.92293167-2.88288116 9.52076913-2.88288115 6.92293167 0 19.32967186 17.30964661 21.63783073 23.65553855 1.15562439 2.30970383 1.15562439 2.30970383 1.15562438 5.77271462 0.28658867 7.21338272-3.17642212 4.90367889-6.34666443 8.65250587zM658.12282689 634.90096284h-14.71567153l-1.73034669 0.86594581c-0.57703972 0.28658867-9.23186302-2.5962925-12.98146248-2.59629251-1.44453049 0.57317734-11.25420571-0.86749077-15.00457763 3.46223833 0 3.46223831-0.57626724 7.78656006-2.30815888 11.24957085-2.88597107 4.90831375-9.2326355 8.94527436-8.65405082 15.57775496-0.57858467-0.28658867 2.30661392 12.40828514 2.30661392 19.91211891 1.7295742 12.11551666 3.46069336 24.22871589 3.46069336 37.50294686 0 12.40674019-0.28736115 29.42825318-2.30506897 36.3558197 0 10.9622097-9.23340798 20.19330024-15.58084488 24.2287159-6.9221592 4.62095261-12.11706162 13.27268601-20.19561768 13.272686-5.48149109 0-6.63402557-10.38285256-9.23186302-14.99839783-4.9067688-7.5061512-17.88668632-4.61940766-17.88668633-10.96684456 0-3.17255974 1.15253448-3.17255974 1.73034668-3.45992088h18.4621811c10.38825989 0 8.36746216-32.89049149 12.11937903-44.43283081v-52.22093582c-1.73111916-5.19490242-0.57858467-8.65250587-1.73111914-14.71335411 0-0.86440086-1.73034668-8.65559578-1.73034669-9.5215416v-3.17101477c0-2.01693535-1.73189163-6.34743691-7.50306129-6.34743691-11.53924942 0-21.6386032 3.46378327-30.00606536 3.46378325-13.84663582 2.59088516-24.80884553 2.59088516-39.81342316 2.59088517-2.01770783-1.72416687-3.46223831-8.93909454-4.03850556-10.38285256-1.72880173-2.88288116-3.46069336-3.46223831-3.46069336-6.92524909 0-1.73189163 0.57626724-2.88442612 2.30506898-2.88442612 5.77348709 0 11.25497818 1.44530296 16.73646926 1.15253449l0.57626724-1.73034668 1.73034668 1.73034668s8.07932854 0.57935715 11.53924941 0.57935714c20.19870758 0 38.66088867-0.57935715 60.01213075-0.57935714 0.57703972 0.57935715 5.76962471 1.73189163 6.92447662 1.73189163 3.46146584 0 6.9221592-1.73189163 10.38516999-1.73189163 12.40751267-1.73034668 24.23489571-0.86594582 35.48678398-12.11397172 2.88597107-5.19644737 4.90522385-5.19644737 7.78964996-5.19644737 2.5962925 0 5.19490242 2.30970383 6.05930328 5.19644737l12.98146248 12.69332886c0.86594582 1.15253448 0.86594582 3.46223831 0.86594582 4.61554527 0 3.17564964 0 6.06007576-2.59397507 7.79119493zM496.55634054 551.51988221c0-2.59783745 1.73189163-3.46223831 4.61554526-3.46223832 5.77116966 0 12.69410134 2.5962925 19.61935043 2.59629249 4.03927803 0 4.90213394 0.29122353 6.92293167-0.86440086 1.15562439 0 3.46301079 0.86440086 5.192585 0.86440086h36.92899704c5.19490242-0.86440086 10.96529961-0.86440086 16.1578846-0.86440086 8.07701111-1.73189163 13.85204316-22.50454902 18.46604347-22.50454902 7.49997139 0 5.76807976 4.90831375 8.6548233 7.79119492 5.19258499 6.9252491 14.71567154 12.11551666 14.71567155 21.6386032 0 7.21183777-8.36900711 7.79119492-14.1394043 7.79119491-1.73111916 0-2.30815887-0.86594582-4.03927803-0.86594581-9.51999665 0-15.29193878 0.86594582-17.31196403 1.73189164-1.15330696 0-6.92061424-0.86594582-8.07623864-0.86594583-1.73189163-1.1587143-6.92293167 0.86594582-10.38594246 0.86594583-10.67562104 0.86440086-21.92750931 0-32.31345176 0.86440086-0.57858467 0-10.38594246 1.72725677-10.9622097 1.72725677-6.9252491 0-11.828928 0.86594582-17.31119157 0.86594582-2.88442612 0-8.07855606-8.65250587-10.38671493-10.38439751-1.73189163-1.73034668-6.34743691-3.46223831-6.3474369-6.92524909zM662.44869359 366.88339424c-10.38439751 3.17333221-21.06001853 6.05775832-31.15859986 10.38594246-8.36900711 3.45992088-13.27114105 9.80735779-19.33044433 9.80735779-6.92447663 0-12.11474419-4.61554527-17.30964661-6.92293167-0.86594582-1.15562439-9.52231407-4.61554527-10.38594245-5.19490242-3.46223831-1.72880173-5.19490242-6.34666443-9.52076912-6.34666443 0 6.34666443 3.46301079 6.06007576 3.46301078 10.38594246 0 3.46301079-5.19335747 6.92602158-5.19335747 13.84895324 0 4.61554527 1.7295742 7.21261025 4.32818413 10.67484856 0 0.86517334 4.32663918 4.32818413 4.32663918 5.19412994 0 0.86594582 2.5962925 7.79119492 2.5962925 8.65791321 0.86362839 3.45760346 5.19258499 5.18872261 6.92293166 7.78656005 1.73189163 1.73111916 1.73189163 3.46223831 2.59706498 6.06007576 0 6.34666443 9.52076912 13.56004715 9.52076912 19.04076577 0 2.59783745-0.86517334 3.46301079-3.45992089 4.32895661-0.86594582 0-8.65868569 2.59706497-9.52385902 2.59706497-15.57852744 6.34666443-28.27262878 15.2911663-41.54454231 22.50377655-3.74959946 1.73189163-7.79119492 1.73189163-11.25188827 4.61554528-3.75191689 4.61631775-16.44601822 7.49919892-20.77188492 10.38362502-8.36823464 5.48071861-18.7541771 7.50460625-27.12241173 10.96761704-6.91984177 2.88365364-13.84586334 6.92061424-21.63783074 8.6517334-6.92293167 0.86594582-12.69410134 4.61554527-19.04076576 4.61554527-0.86594582 0-2.59706497-1.15098953-2.59706496-2.88288117 0-4.0369606 10.09935379-5.19412995 13.85127066-6.92602157 0.86285591 0 5.19181252-3.45760346 6.05775834-3.45760346 9.52076912-5.19490242 19.90671157-8.65714072 29.71329689-13.85204314 6.06084824-4.61554527 15.5831623-6.34666443 22.50300406-12.11474419 10.96607208-9.23649787 18.17868233-12.40751267 30.29651643-22.50377656 1.73189163-1.73111916 10.38671494-8.65714072 12.11783409-10.38903235 4.32663918-3.46301079 13.84895325-12.98069001 13.84895325-19.90671158 0-0.86594582-0.86517334-2.59706497-2.59552002-2.59706498 0 0-3.46378327 0.86594582-4.32895661 0.86594582-5.48149109 0-19.62012291 11.25420571-22.7911377 11.25420571-2.30970383 0-5.77039718 6.92061424-12.69410133 6.92061423-12.12015152 9.52385903-27.41054534 13.56004715-40.97059249 18.46758843-5.19258499 1.73111916-12.11551666 5.19412995-18.17559243 5.19412994-1.15253448 0-4.61554527-0.29122353-4.3289566-2.88906097h5.19412994l0.86594582-0.57394982-1.73111916-1.15253448c10.38594246-4.32895661 19.04076577-8.65791321 27.98526764-13.85127068 2.02079773 0 12.69410134-8.07855606 20.77265739-11.24957085 4.32895661-3.46301079 6.06084824-5.48149109 13.84895325-11.2542057 8.65559578-6.34666443 17.31196403-15.57775498 25.10084153-23.36972236 0-4.6147728 0-6.34589195-4.3258667-6.34589195-7.79196739 0-13.27268601 5.48149109-19.04385568 8.94295692-4.6178627 0-10.38516998 6.6332531-15.5800724 9.52308655-12.11551666 3.74959946-21.05924606 10.38362503-34.04302596 10.38362503 0-4.90290642 8.07623863-5.19490242 9.80735779-6.92061424 0 0.28736115 4.32895661-5.19412995 8.6579132-5.19412995 4.32895661-4.90831375 11.82738304-6.06007576 14.42522049-9.52308655 4.32895661-4.6147728 10.67484856-7.21183777 15.00148773-12.4059677 1.73111916-2.59474754 5.484581-9.23186302 8.65559579-9.23186304 4.32818413 0.28736115 5.19412995-6.06007576 7.79042243-8.65482329 0.57703972-0.86594582 4.32895661-4.6178627 4.32895661-6.92602157 0-1.15253448 4.3258667-4.61554527 4.3258667-5.19181253 0.86594582-3.75191689-1.15485191-12.11783408-7.78887749-12.11783408-4.90831375 0-12.11937905 7.49919892-16.73569679 12.11783408-2.0184803 0-4.32663918 5.19181252-6.92293167 5.19181253-0.57626724 0-3.45992088 4.03927803-4.03927803 4.03927802-4.90445137 4.90522385-7.21338272 3.75268936-10.38594246 6.92602158-5.19181252 4.61554527-12.11783408 8.65482331-19.0430832 9.80735779v5.77039718c0 3.74959946-3.17024231 6.06007576-2.88365363 9.80890274 0 2.0184803-6.92293167 13.85204316-12.11551667 13.85204315-6.06007576 0-6.92602158-8.65791321-6.92602157-12.98609734 0-7.21183777 2.59706497-11.25111579 3.46301078-19.32889937 0-10.38594246 0.86594582-14.42522048 0.86594581-24.81193543 0-2.88674355-1.73189163-26.25492097-1.73189162-28.85044098 0-5.19335747 2.59706497-45.87349892-9.52308655-45.87349891-6.91984177 0-9.51767922 9.52076912-12.11474419 14.71412658-2.0184803 4.32741165-5.19490242 4.32741165-4.3289566 10.38594246l8.65791321 8.65636826v2.59552002c-4.32895661 8.65636826-8.65791321 16.44524574-8.65791321 26.8311882 0 4.61709023 1.73189163 8.65482331 1.73189163 13.27345848-0.86594582 6.6332531-2.59783745 12.69410134-2.59783745 16.15711212v46.15854263c0 5.48149109 0.86594582 18.7541771 0.86594582 31.16091728-1.44221306 5.48071861-1.15253448 12.40674019-1.73111916 17.59623528-1.15253448 6.92602158-6.05775832 12.12015152-7.78887749 17.88900375 1.44221306 7.79119492-7.78887749 9.23572539-9.23340797 9.2357254-0.28736115 0-0.86594582-0.57858467-1.15253448-1.1579418 0-2.30506897-5.77039718-8.07778358-5.19490242-9.80967523 0.86594582-9.80967522 5.19490242-19.04076577 5.19490242-28.27185631 1.15253448-15.00380515 1.73111916-38.08153152 1.73111915-41.83113098 0-1.73111916-0.86594582-12.12015152-0.86594581-13.85204315 0-0.86517334 0.86594582-5.19335747 0.86594581-6.34589195 1.15253448-0.86517334-0.86594582-3.17255974-0.86594581-9.23340797 0-15.57775498 0-33.17630768-0.86594582-38.08307649l-0.86594581-1.73034667c-0.86594582 0.57626724-4.32895661 4.03927803-5.19412995 5.192585-6.92293167 5.19412995-8.65250587 16.44601822-18.46218109 23.08236121-3.46223831 4.61554527-5.77348709 6.92293167-10.38825989 10.38594246-0.57626724 1.15253448-7.49919892 8.07855606-8.65559577 8.6548233-4.03927803 0-12.40442275 15.00303269-22.50377656 15.00303269 0-5.19490242 8.07855606-10.38748741 11.54156685-15.00303269 0.28967857-0.86594582 0.57626724-2.02079773 1.72880173-2.3073864 0-0.86594582 7.50460625-4.61863518 7.50460625-6.92602158 0-1.15253448 3.46069336-5.19181252 3.46069335-6.34666443 0-1.44221306 4.90522385-5.48149109 6.92293168-8.6548233 4.04159546-7.21261025 9.80967522-12.11706162 14.13863181-19.03999328 3.74959946-5.48303603 5.19412995-12.11860657 8.65482331-18.1763649 3.17333221-1.15485191 3.17333221-8.36746216 6.92293166-12.11783409 7.21261025-7.78964996 4.90754128-14.42522048 7.79119493-22.50377654 0-0.86517334 5.19181252-6.92447663 5.19181252-7.78964998 0-0.86440086 1.73189163-7.78887749 1.73189162-8.6548233 0-0.86594582 3.46223831-6.05930328 3.46223832-7.21261024 2.59474754-6.63479805 5.19181252-13.27191353 5.19181251-20.7726574 0-0.5778122 2.59706497-4.03927803 2.59706498-5.19258498 0.28736115-1.73189163-1.73189163-5.48303603-1.73189164-7.50228883 0-4.90367889-2.59706497-10.38594246-2.59706498-11.53924941-1.15253448-4.90522385 9.52308654-4.03927803 16.44601823-4.03927804 2.59783745 0 6.05775832 0 7.78887749 3.46301079 0 2.59552002 0.86594582 6.05698586 3.46301077 7.50074386 3.46301079 12.40596772 9.80967522 10.96375465 9.80967523 20.77265741 0-0.28813362-5.48071861 5.19258499-9.80967523 8.07855605-2.59706497 11.25188828 21.05924606 18.46449851 21.05924608 25.09929658 0 1.73189163 0 4.32895661-1.15253449 6.92447661-2.59706497 4.61631775-2.3073864 9.5215416-2.3073864 12.98300744 0 1.73111916-0.28967857 4.61554527 0.57626724 5.19335746 6.636343-3.17333221 9.80967522-11.25188828 13.27345848-17.31119155 2.5962925-6.63479805 7.21183777-8.65482331 9.23031808-12.98300743 0.86594582-5.76962471 4.32895661-10.09703636 5.19490241-15.86743355 1.73111916-5.77116966 2.88442612-12.11783408 4.61554528-17.88668633 1.73189163-5.19490242 3.46301079-9.80967522 3.46301079-15.5800724 0-3.46223831-4.61631775-8.07855606-6.34743691-9.80890274-0.86517334-4.90445137 11.82815552-6.92447663 15.00148774-6.92447663 0.57703972 0 5.19258499 1.15407944 5.77194214 1.73111916 1.44144058 5.48149109 16.73260688 10.38594246 16.73260688 19.04076576 0 1.73189163-0.86517334 4.61709023-2.59706497 6.34666443-6.05853081 4.03927803-17.5985527 16.44524574-17.59855271 26.54305458 0 4.61631775 5.19412995 5.19258499 8.9437294 5.192585l1.73189163-0.57626726c8.65482331 0 17.02151299 0.57626724 26.83196068 0.57626726 3.74959946-2.3073864 6.63402557-1.73034668 10.38285255-2.3073864 6.06007576-2.3073864 14.71567154-9.2326355 19.04076577-12.1178341 8.65714072-1.44144058 22.79577256 9.5215416 22.79577255 19.04231071 0 5.19335747-1.73034668 7.78887749-6.34975433 7.78887749-8.65482331 0-17.30964661-3.46146584-25.09775162-3.46146584-3.17642212 0-7.79196739-0.86594582-7.79196739 3.46146584 1.15485191 4.90522385 7.79196739 10.09780883 7.79196739 15.58084488-3.17642212 6.34666443-7.21338272 4.32741165-11.25497818 6.92293168-4.32663918 3.46301079-9.51690674 7.78964996-12.98069 12.11706161-2.02079773 15.2911663 17.88823128 16.44524574 32.02377319 25.38897514 4.03927803 2.30893135 0 5.19335747 6.05853081 5.19335747 1.73111916 0 3.46223831-1.15485191 5.19490241-1.15485191 3.17255974 0.86594582 6.92293167 1.15485191 9.51999665 1.73111916 10.38516998 3.46301079 18.46449851 4.32895661 35.7749176 6.92602157v1.72802925z" p-id="12982" fill="#555555"></path></svg>